<?xml version="1.0" encoding="utf-8"?>
<!-- Generator: Adobe Illustrator 16.0.0, SVG Export Plug-In . SVG Version: 6.00 Build 0)  -->
<!DOCTYPE svg PUBLIC "-//W3C//DTD SVG 1.1//EN" "http://www.w3.org/Graphics/SVG/1.1/DTD/svg11.dtd">
<svg version="1.1" id="Layer_1" xmlns="http://www.w3.org/2000/svg" xmlns:xlink="http://www.w3.org/1999/xlink" x="0px" y="0px"
	 width="538.583px" height="481.891px" viewBox="0 0 538.583 481.891" enable-background="new 0 0 538.583 481.891"
	 xml:space="preserve">
<g>
	<path fill="#323232" d="M221.291,366.364V261.508h10.648v104.856H221.291z M442.46,276.156v90.208h10.651v-90.208H442.46z
		 M481.89,272.161v-10.652h-68.202v10.652H481.89z M106.534,328.556l-49.841-69.543v20l40.378,55.371
		C101.532,335.753,106.209,329.003,106.534,328.556z M149.4,300.052v66.312h10.648v-80.92L149.4,300.052z M108.513,330.929
		c-0.047,0.068-0.091,0.129-0.141,0.194c-6.455,8.896-9.675,5.492-9.675,5.492c0.087,0.134,0.671,0.981,0.671,0.981
		c0.732,0.959,1.604,1.789,2.6,2.47c1.817,1.255,4.028,1.984,6.404,1.984c2.38,0,4.586-0.729,6.407-1.984
		c0.992-0.681,1.864-1.511,2.597-2.47l0.685-0.995l41.987-57.589v-20L108.513,330.929z M293.18,280.652v85.712h10.652v-73.088
		L293.18,280.652z M370.555,342.947v-81.438H359.9v69.067L370.555,342.947z M370.555,348.886l-77.375-89.874v15.646l77.375,91.706
		V348.886z M56.693,285.444v80.92h10.652v-66.312L56.693,285.444z"/>
	<path fill="#323232" d="M124.999,419.398h-7.652l-1.709,4.328h-2.077l6.494-15.945h2.232l6.49,15.945h-2.069L124.999,419.398z
		 M124.271,417.574l-3.102-7.811l-3.094,7.811H124.271z M160.705,412.724c0,3.029-1.937,4.922-5.376,4.922h-4.558v6.08h-2.005
		V407.78h6.563C158.768,407.78,160.705,409.696,160.705,412.724z M158.609,412.724c0-2.142-1.006-3.101-3.444-3.101h-4.396v6.198
		h4.396C157.604,415.821,158.609,414.862,158.609,412.724z M189.642,419.398h-7.652l-1.709,4.328h-2.073l6.49-15.945h2.236
		l6.491,15.945h-2.074L189.642,419.398z M188.917,417.574l-3.101-7.811l-3.098,7.811H188.917z M218.012,417.394h-2.596v6.332h-2.009
		V407.78h6.609c3.346,0,5.33,1.865,5.33,4.854c0,2.87-1.825,4.624-4.94,4.76l5.308,6.332h-2.416L218.012,417.394z M215.417,415.594
		h4.442c2.412,0,3.396-0.956,3.396-2.96c0-2.004-0.984-3.011-3.396-3.011h-4.442V415.594z M249.95,409.645h-5.333v-1.865h12.667
		v1.865h-5.33v14.081h-2.005V409.645z M293.919,407.78v15.945h-1.936v-12.873l-5.535,8.726h-1.666l-5.535-8.726v12.873h-1.937
		V407.78h2.117l6.202,9.729l6.169-9.729H293.919z M326.888,421.879v1.847h-11.142V407.78h10.911v1.843h-8.906v5.149h8.448v1.825
		h-8.448v5.282H326.888z M361.054,407.78v15.945h-1.872l-9.523-12.754v12.754h-1.958V407.78h1.867l9.524,12.758V407.78H361.054z
		 M386.414,409.645h-5.333v-1.865h12.667v1.865h-5.33v14.081h-2.005V409.645z M412.628,420.333l1.619-0.935
		c0.862,1.843,2.596,2.825,4.85,2.825c2.416,0,3.852-1.115,3.852-2.803c0-1.295-0.844-2.116-2.827-2.596l-2.575-0.617
		c-2.939-0.703-4.442-2.095-4.442-4.258c0-2.622,2.189-4.49,5.744-4.49c2.892,0,5.012,1.23,5.784,2.917l-1.572,0.957
		c-0.775-1.321-2.3-2.048-4.259-2.048c-2.278,0-3.645,0.977-3.645,2.639c0,1.23,0.75,2.004,2.87,2.509l2.575,0.617
		c3.119,0.75,4.421,2.138,4.421,4.305c0,2.777-2.167,4.688-5.946,4.688C415.816,424.043,413.537,422.633,412.628,420.333z"/>
	<path fill="#01B047" d="M318.681,111.635c-2.676-5.592-6.274-10.672-10.699-15.101l-38.694-38.688l-38.691,38.688
		c-4.425,4.429-8.023,9.509-10.695,15.102c-9.97,20.88-5.672,45.91,10.695,62.282l38.691,38.689l38.694-38.689
		C324.353,157.542,328.651,132.514,318.681,111.635z M288.24,87.06l-18.949,18.951l-18.952-18.945l18.949-18.951L288.24,87.06z
		 M235.732,101.671l9.476-9.473l24.083,24.081l24.083-24.084l9.473,9.476c3.235,3.234,5.924,6.892,8.092,10.856l-41.651,41.649
		l-41.648-41.644C229.804,108.569,232.494,104.909,235.732,101.671z M224.485,119.646l41.176,41.17v37.897l-29.929-29.929
		C222.787,155.838,218.579,136.659,224.485,119.646z M302.848,168.785l-29.932,29.929v-37.897l41.179-41.175
		C320.004,136.652,315.796,155.836,302.848,168.785z"/>
</g>
</svg>