<?xml version="1.0" encoding="utf-8"?>
<!-- Generator: Adobe Illustrator 16.0.0, SVG Export Plug-In . SVG Version: 6.00 Build 0)  -->
<!DOCTYPE svg PUBLIC "-//W3C//DTD SVG 1.1//EN" "http://www.w3.org/Graphics/SVG/1.1/DTD/svg11.dtd">
<svg version="1.1" id="Layer_1" xmlns="http://www.w3.org/2000/svg" xmlns:xlink="http://www.w3.org/1999/xlink" x="0px" y="0px"
	 width="311.811px" height="311.812px" viewBox="0 0 311.811 311.812" enable-background="new 0 0 311.811 311.812"
	 xml:space="preserve">
<g>
	<path fill="#01B047" d="M232.672,119.234c-4.159-8.689-9.752-16.588-16.629-23.468L155.9,35.633L95.763,95.766
		c-6.877,6.88-12.47,14.779-16.624,23.471c-15.497,32.452-8.815,71.358,16.624,96.805l60.137,60.136l60.143-60.136
		C241.487,190.59,248.169,151.687,232.672,119.234z M185.357,81.038l-29.452,29.457l-29.458-29.447L155.9,51.593L185.357,81.038z
		 M103.744,103.749l14.729-14.724l37.433,37.428l37.433-37.434l14.723,14.729c5.028,5.028,9.208,10.713,12.577,16.872L155.9,185.358
		L91.167,120.63C94.53,114.472,98.711,108.782,103.744,103.749z M86.263,131.688l64,63.99v58.902l-46.519-46.517
		C83.624,187.94,77.083,158.13,86.263,131.688z M208.062,208.064l-46.523,46.517v-58.902l64.004-63.999
		C234.729,158.119,228.188,187.938,208.062,208.064z"/>
</g>
</svg>